<svg id="Layer_1" data-name="Layer 1" xmlns="http://www.w3.org/2000/svg" xmlns:xlink="http://www.w3.org/1999/xlink" viewBox="0 0 681.5 200"><defs><style>.cls-1,.cls-4,.cls-5{fill:#111;}.cls-2{fill:url(#linear-gradient);}.cls-3{fill:none;stroke:url(#linear-gradient-2);}.cls-3,.cls-4,.cls-5{stroke-miterlimit:10;}.cls-4{stroke:url(#linear-gradient-3);}.cls-5{stroke:url(#linear-gradient-4);}.cls-6,.cls-7{fill:#18ffb2;}.cls-7{font-size:13px;font-family:Poppins-Medium, Poppins;font-weight:500;letter-spacing:0.2em;}.cls-8{fill:#fff;}</style><linearGradient id="linear-gradient" x1="526.61" y1="98.79" x2="608.85" y2="98.79" gradientUnits="userSpaceOnUse"><stop offset="0" stop-color="#a081d9"/><stop offset="0.26" stop-color="#6c98f5"/><stop offset="0.52" stop-color="#5ee7f9"/><stop offset="0.55" stop-color="#76e6f0"/><stop offset="0.62" stop-color="#9de5e0"/><stop offset="0.67" stop-color="#bae4d5"/><stop offset="0.72" stop-color="#cbe3ce"/><stop offset="0.76" stop-color="#d1e3cc"/><stop offset="0.77" stop-color="#d0deca"/><stop offset="0.93" stop-color="#c1a2b0"/><stop offset="1" stop-color="#bb8ba6"/></linearGradient><linearGradient id="linear-gradient-2" x1="495.68" y1="98.18" x2="637.53" y2="98.18" xlink:href="#linear-gradient"/><linearGradient id="linear-gradient-3" x1="522.96" y1="160.57" x2="609.84" y2="160.57" xlink:href="#linear-gradient"/><linearGradient id="linear-gradient-4" x1="522.96" y1="38.57" x2="609.84" y2="38.57" xlink:href="#linear-gradient"/></defs><rect class="cls-1" width="681.35" height="200" rx="8"/><path class="cls-2" d="M545.52,112.67v.09l-18.6,5.74h-.31v11.67h63.32v-.1l18.61-5.73h.31V112.67Zm0,.85v5H529.4Zm44,5H546.25v-5.1h59.82Zm.42,10.81v-5h16.14Zm18.19-5.7H589.93v-4.48l18.19-5.61ZM545.52,90v.09l-18.58,5.74h-.32v11.67h63.31v-.1l18.6-5.72h.32V90Zm0,.86v5H529.4Zm44,5H546.25v-5.1h59.81Zm.4,10.81v-5h16.13ZM608.12,101H589.93V96.5l18.19-5.6Zm-62.6-33.58v.1l-18.6,5.73h-.3V84.92h63.31v-.1l18.61-5.74h.31V67.41Zm0,.86v5H529.39ZM589.2,84.19H527.34V74H589.2Zm.31-11H546.25V68.13h59.82Zm.42,10.81v-5h16.14Zm18.19-5.7H589.93V73.87l18.19-5.6Z"/><rect class="cls-3" x="496.18" y="37.48" width="140.84" height="121.41"/><rect class="cls-4" x="523.46" y="149.78" width="85.88" height="21.58"/><rect class="cls-5" x="523.46" y="27.78" width="85.88" height="21.58"/><path class="cls-6" d="M539.62,163.45h3.17v1.16h-4.65v-9.18h1.48Z"/><path class="cls-6" d="M548,156.63v2.78h3.38v1.14H548v2.85h3.77v1.21h-5.25v-9.18h5.25v1.2Z"/><path class="cls-6" d="M556.77,155.43l2.64,7.59,2.65-7.59h1.61l-3.31,9.18h-1.9l-3.3-9.18Z"/><path class="cls-6" d="M568.86,156.63v2.78h3.38v1.14h-3.38v2.85h3.77v1.21h-5.25v-9.18h5.25v1.2Z"/><path class="cls-6" d="M578.15,163.45h3.18v1.16h-4.66v-9.18h1.48Z"/><path class="cls-6" d="M593.72,160.63a4,4,0,0,0,1.27-2.57,1.71,1.71,0,0,0-.35-1.12,1.36,1.36,0,0,0-1.11-.42,1.43,1.43,0,0,0-1.19.52,2.58,2.58,0,0,0-.46,1.46h-1.44a3.4,3.4,0,0,1,1-2.4,3.1,3.1,0,0,1,2.24-.84,3,3,0,0,1,2.1.71,2.54,2.54,0,0,1,.76,2,4,4,0,0,1-.62,2,8.62,8.62,0,0,1-1.56,1.89,14.17,14.17,0,0,1-2,1.49h4.36v1.2h-6.37v-1.09A19.53,19.53,0,0,0,593.72,160.63Z"/><text class="cls-7" transform="translate(533.28 42.65)">BUILDER</text><path class="cls-8" d="M77.22,65a9,9,0,0,1,3.12,5.51H74.05a3.43,3.43,0,0,0-1.24-2.1,3.74,3.74,0,0,0-2.41-.77,2.62,2.62,0,0,0-1.73.49,1.7,1.7,0,0,0-.59,1.4,1.63,1.63,0,0,0,1.08,1.53,17.16,17.16,0,0,0,3.4,1,34.52,34.52,0,0,1,4.13,1.2,6.88,6.88,0,0,1,2.79,2A5.47,5.47,0,0,1,80.66,79a5.65,5.65,0,0,1-1,3.34,6.69,6.69,0,0,1-3,2.29,11.57,11.57,0,0,1-4.56.82,11.74,11.74,0,0,1-7.12-2,8.3,8.3,0,0,1-3.26-5.63h6.48A3,3,0,0,0,69.43,80a4.61,4.61,0,0,0,2.7.74,2.49,2.49,0,0,0,1.73-.53,1.79,1.79,0,0,0,.59-1.39,1.69,1.69,0,0,0-1.09-1.64,20.85,20.85,0,0,0-3.51-1,28,28,0,0,1-4-1.1,6.59,6.59,0,0,1-2.72-1.91A5.28,5.28,0,0,1,62,69.54a5.88,5.88,0,0,1,2.24-4.78,9.78,9.78,0,0,1,6.33-1.83A10.14,10.14,0,0,1,77.22,65Z"/><path class="cls-8" d="M106.61,63.2v22H99.85v-4A7.33,7.33,0,0,1,97,84.24a8.21,8.21,0,0,1-4.35,1.14,7.63,7.63,0,0,1-6-2.51A10.11,10.11,0,0,1,84.47,76V63.2h6.69V75.12a4.88,4.88,0,0,0,1.16,3.48,4,4,0,0,0,3.12,1.24,4.13,4.13,0,0,0,3.23-1.3,5.34,5.34,0,0,0,1.18-3.7V63.2Z"/><path class="cls-8" d="M130.18,64.29a9.31,9.31,0,0,1,3.39,3.89,15.18,15.18,0,0,1,0,12,9.34,9.34,0,0,1-3.39,3.92,8.9,8.9,0,0,1-4.85,1.35A8,8,0,0,1,121,84.28a6.63,6.63,0,0,1-2.63-3.1v4h-6.73V56.05h6.73V67.18A6.65,6.65,0,0,1,121,64.07a8,8,0,0,1,4.33-1.14A8.82,8.82,0,0,1,130.18,64.29Zm-10.49,6a6.29,6.29,0,0,0,0,7.81,4.95,4.95,0,0,0,7,0,6.57,6.57,0,0,0,0-7.87,5,5,0,0,0-7,0Z"/><path class="cls-8" d="M153.34,65a9.05,9.05,0,0,1,3.13,5.51h-6.29a3.47,3.47,0,0,0-1.24-2.1,3.77,3.77,0,0,0-2.42-.77,2.64,2.64,0,0,0-1.73.49,1.73,1.73,0,0,0-.59,1.4,1.63,1.63,0,0,0,1.08,1.53,17.38,17.38,0,0,0,3.4,1,34,34,0,0,1,4.13,1.2,6.85,6.85,0,0,1,2.8,2A5.52,5.52,0,0,1,156.78,79a5.65,5.65,0,0,1-1,3.34,6.64,6.64,0,0,1-2.95,2.29,11.5,11.5,0,0,1-4.56.82,11.78,11.78,0,0,1-7.12-2,8.3,8.3,0,0,1-3.26-5.63h6.49a2.9,2.9,0,0,0,1.2,2.17,4.55,4.55,0,0,0,2.69.74,2.47,2.47,0,0,0,1.73-.53,1.76,1.76,0,0,0,.59-1.39,1.69,1.69,0,0,0-1.08-1.64,20.73,20.73,0,0,0-3.52-1,28.73,28.73,0,0,1-4-1.1,6.56,6.56,0,0,1-2.71-1.91,5.28,5.28,0,0,1-1.14-3.59,5.85,5.85,0,0,1,2.24-4.78,9.74,9.74,0,0,1,6.33-1.83A10.09,10.09,0,0,1,153.34,65Z"/><path class="cls-8" d="M173.34,79.37v5.78h-3a8.73,8.73,0,0,1-6-1.91c-1.42-1.27-2.14-3.38-2.14-6.31V68.87h-2.95V63.2h2.95V57.82h6.73V63.2h4.4v5.67h-4.4v8.18a2.42,2.42,0,0,0,.53,1.8,2.49,2.49,0,0,0,1.79.52Z"/><path class="cls-8" d="M187.47,64.15A8.27,8.27,0,0,1,191.78,63v7.19h-1.93a6.62,6.62,0,0,0-4.14,1.15,4.55,4.55,0,0,0-1.48,3.85v10h-6.72v-22h6.72v4.13A9.56,9.56,0,0,1,187.47,64.15Z"/><path class="cls-8" d="M207.67,64.07a6.91,6.91,0,0,1,2.67,3.11v-4H217v22h-6.68v-4a6.89,6.89,0,0,1-2.67,3.1,8,8,0,0,1-4.33,1.14,8.93,8.93,0,0,1-4.86-1.35,9.39,9.39,0,0,1-3.38-3.92,15.06,15.06,0,0,1,0-12,9.36,9.36,0,0,1,3.38-3.89,8.85,8.85,0,0,1,4.86-1.36A8,8,0,0,1,207.67,64.07ZM202,70.24a6.57,6.57,0,0,0,0,7.87,4.95,4.95,0,0,0,7,0,6.29,6.29,0,0,0,0-7.81,5,5,0,0,0-7,0Z"/><path class="cls-8" d="M234.48,79.37v5.78h-3a8.73,8.73,0,0,1-6-1.91c-1.43-1.27-2.14-3.38-2.14-6.31V68.87h-2.95V63.2h2.95V57.82H230V63.2h4.4v5.67H230v8.18a1.95,1.95,0,0,0,2.32,2.32Z"/><path class="cls-8" d="M259.29,75.39H244.08A5,5,0,0,0,245.34,79,4.07,4.07,0,0,0,248.25,80a4,4,0,0,0,2.47-.75,3.47,3.47,0,0,0,1.3-1.93h7.12a9.31,9.31,0,0,1-1.89,4.15,10,10,0,0,1-3.7,2.87,11.61,11.61,0,0,1-5,1,11.82,11.82,0,0,1-5.72-1.35,9.65,9.65,0,0,1-3.91-3.92,12,12,0,0,1-1.42-6,12.26,12.26,0,0,1,1.4-6,9.52,9.52,0,0,1,3.91-3.89,12.88,12.88,0,0,1,11.48,0A9.41,9.41,0,0,1,258.13,68a11.13,11.13,0,0,1,1.36,5.57A8.54,8.54,0,0,1,259.29,75.39Zm-7.76-6.07a4.28,4.28,0,0,0-3-1.08,4.44,4.44,0,0,0-3.07,1.1,4.59,4.59,0,0,0-1.37,3.22h8.57A4.05,4.05,0,0,0,251.53,69.32Z"/><path class="cls-6" d="M287.25,84.71v6.57H262.91V84.71Z"/><path class="cls-8" d="M81.11,115.32a9.22,9.22,0,0,1,3.38,3.89,15.06,15.06,0,0,1,0,12,9.16,9.16,0,0,1-3.38,3.91,8.85,8.85,0,0,1-4.85,1.36,8,8,0,0,1-4.33-1.14,6.62,6.62,0,0,1-2.63-3.1v4H62.57v-29.1H69.3v11.13a6.6,6.6,0,0,1,2.63-3.11A8,8,0,0,1,76.26,114,8.85,8.85,0,0,1,81.11,115.32Zm-10.5,6a6.32,6.32,0,0,0,0,7.81,4.95,4.95,0,0,0,7,0,6.53,6.53,0,0,0,0-7.87,4.54,4.54,0,0,0-3.48-1.41A4.61,4.61,0,0,0,70.61,121.29Z"/><path class="cls-8" d="M111.45,114.23v22h-6.77v-4a7.21,7.21,0,0,1-2.81,3.06,8.15,8.15,0,0,1-4.34,1.14,7.59,7.59,0,0,1-6-2.52A10.07,10.07,0,0,1,89.31,127V114.23H96v11.92a4.92,4.92,0,0,0,1.16,3.48,4.6,4.6,0,0,0,6.35-.06,5.29,5.29,0,0,0,1.18-3.7V114.23Z"/><path class="cls-8" d="M117,105.53a4.7,4.7,0,0,1,5.82,0,3.43,3.43,0,0,1,0,5,4.73,4.73,0,0,1-5.82,0,3.43,3.43,0,0,1,0-5Zm6.25,8.7v22h-6.72v-22Z"/><path class="cls-8" d="M135,107.08v29.1h-6.72v-29.1Z"/><path class="cls-8" d="M152.66,115.1a6.65,6.65,0,0,1,2.63,3.11V107.08H162v29.1h-6.72v-4a6.68,6.68,0,0,1-2.63,3.1,8,8,0,0,1-4.33,1.14,8.85,8.85,0,0,1-4.86-1.36,9.23,9.23,0,0,1-3.38-3.91,15.06,15.06,0,0,1,0-12,9.29,9.29,0,0,1,3.38-3.89,8.85,8.85,0,0,1,4.86-1.36A8,8,0,0,1,152.66,115.1ZM147,121.27a6.57,6.57,0,0,0,0,7.87,4.95,4.95,0,0,0,7,0,6.29,6.29,0,0,0,0-7.81,5,5,0,0,0-7,0Z"/><path class="cls-8" d="M187.69,126.42H172.47a5.08,5.08,0,0,0,1.26,3.56,4.06,4.06,0,0,0,2.91,1.08,4,4,0,0,0,2.48-.74,3.52,3.52,0,0,0,1.3-1.93h7.11a9.3,9.3,0,0,1-1.88,4.15,10.15,10.15,0,0,1-3.7,2.87,12.63,12.63,0,0,1-10.72-.32,9.68,9.68,0,0,1-3.91-3.91,13.49,13.49,0,0,1,0-12,9.54,9.54,0,0,1,3.92-3.89,12.88,12.88,0,0,1,11.48,0,9.41,9.41,0,0,1,3.83,3.75,11.13,11.13,0,0,1,1.36,5.57A9.25,9.25,0,0,1,187.69,126.42Zm-7.77-6.07a4.25,4.25,0,0,0-3-1.08,4.41,4.41,0,0,0-3.07,1.1,4.64,4.64,0,0,0-1.38,3.22h8.57A4,4,0,0,0,179.92,120.35Z"/><path class="cls-8" d="M201.75,115.18a8.24,8.24,0,0,1,4.3-1.18v7.19h-1.92a6.63,6.63,0,0,0-4.15,1.14,4.6,4.6,0,0,0-1.48,3.86v10h-6.72v-22h6.72v4.13A9.5,9.5,0,0,1,201.75,115.18Z"/><path class="cls-8" d="M223.92,116a9.05,9.05,0,0,1,3.13,5.51h-6.29a3.47,3.47,0,0,0-1.24-2.1,3.71,3.71,0,0,0-2.42-.77,2.64,2.64,0,0,0-1.73.49,1.72,1.72,0,0,0-.59,1.39,1.64,1.64,0,0,0,1.08,1.54,17.3,17.3,0,0,0,3.41,1,32.54,32.54,0,0,1,4.12,1.2,6.85,6.85,0,0,1,2.8,2,5.5,5.5,0,0,1,1.18,3.69,5.67,5.67,0,0,1-1,3.34,6.55,6.55,0,0,1-3,2.28,11.32,11.32,0,0,1-4.56.83,11.66,11.66,0,0,1-7.11-2,8.29,8.29,0,0,1-3.27-5.62h6.49a2.86,2.86,0,0,0,1.2,2.16,4.48,4.48,0,0,0,2.69.75,2.52,2.52,0,0,0,1.73-.53,1.76,1.76,0,0,0,.59-1.39,1.69,1.69,0,0,0-1.08-1.64,20.73,20.73,0,0,0-3.52-1,28.73,28.73,0,0,1-4-1.1,6.56,6.56,0,0,1-2.71-1.91,5.29,5.29,0,0,1-1.14-3.6,5.88,5.88,0,0,1,2.24-4.77,9.74,9.74,0,0,1,6.33-1.83A10,10,0,0,1,223.92,116Z"/><path class="cls-8" d="M258.29,115.32a9.22,9.22,0,0,1,3.38,3.89,15.06,15.06,0,0,1,0,12,9.16,9.16,0,0,1-3.38,3.91,8.85,8.85,0,0,1-4.85,1.36,8,8,0,0,1-4.33-1.14,6.62,6.62,0,0,1-2.63-3.1v14.43h-6.73V114.23h6.73v4a6.6,6.6,0,0,1,2.63-3.11,8,8,0,0,1,4.33-1.14A8.85,8.85,0,0,1,258.29,115.32Zm-10.5,6a6.32,6.32,0,0,0,0,7.81,4.95,4.95,0,0,0,7,0,6.53,6.53,0,0,0,0-7.87,4.54,4.54,0,0,0-3.48-1.41A4.61,4.61,0,0,0,247.79,121.29Z"/><path class="cls-8" d="M276.77,115.18a8.27,8.27,0,0,1,4.31-1.18v7.19h-1.93a6.67,6.67,0,0,0-4.15,1.14,4.6,4.6,0,0,0-1.47,3.86v10H266.8v-22h6.73v4.13A9.56,9.56,0,0,1,276.77,115.18Z"/><path class="cls-8" d="M300.41,115.32a10,10,0,0,1,4,3.91,12.88,12.88,0,0,1,0,12,10,10,0,0,1-4,3.91,13.26,13.26,0,0,1-11.7,0,9.83,9.83,0,0,1-4.07-3.91,12.8,12.8,0,0,1,0-12,9.89,9.89,0,0,1,4.07-3.91,13.26,13.26,0,0,1,11.7,0Zm-9.09,5.85a5.68,5.68,0,0,0-1.32,4,5.59,5.59,0,0,0,1.32,4,4.34,4.34,0,0,0,3.25,1.37,4.26,4.26,0,0,0,3.22-1.37,5.63,5.63,0,0,0,1.3-4,5.72,5.72,0,0,0-1.3-4,4.21,4.21,0,0,0-3.22-1.39A4.29,4.29,0,0,0,291.32,121.17Z"/><path class="cls-8" d="M322.48,115.1a6.87,6.87,0,0,1,2.68,3.11v-4h6.68v21.83a12.55,12.55,0,0,1-1.18,5.52A9.05,9.05,0,0,1,327,145.5,11.61,11.61,0,0,1,321,147a12.44,12.44,0,0,1-7.92-2.34,9.51,9.51,0,0,1-3.56-6.35h6.64a3.3,3.3,0,0,0,1.44,2.08,5.18,5.18,0,0,0,2.93.75,4.7,4.7,0,0,0,3.36-1.2,5.05,5.05,0,0,0,1.28-3.83v-3.85a6.9,6.9,0,0,1-2.68,3.1,7.91,7.91,0,0,1-4.32,1.14,8.85,8.85,0,0,1-4.86-1.36,9.23,9.23,0,0,1-3.38-3.91,15.06,15.06,0,0,1,0-12,9.29,9.29,0,0,1,3.38-3.89,8.85,8.85,0,0,1,4.86-1.36A7.91,7.91,0,0,1,322.48,115.1Zm-5.64,6.17a6.53,6.53,0,0,0,0,7.87,4.95,4.95,0,0,0,7,0,6.29,6.29,0,0,0,0-7.81,5,5,0,0,0-7,0Z"/><path class="cls-8" d="M346.84,115.18a8.27,8.27,0,0,1,4.31-1.18v7.19h-1.93a6.67,6.67,0,0,0-4.15,1.14,4.6,4.6,0,0,0-1.47,3.86v10h-6.72v-22h6.72v4.13A9.56,9.56,0,0,1,346.84,115.18Z"/><path class="cls-8" d="M367,115.1a6.91,6.91,0,0,1,2.67,3.11v-4h6.68v22h-6.68v-4a6.94,6.94,0,0,1-2.67,3.1,8,8,0,0,1-4.33,1.14,8.85,8.85,0,0,1-4.86-1.36,9.23,9.23,0,0,1-3.38-3.91,15.06,15.06,0,0,1,0-12,9.29,9.29,0,0,1,3.38-3.89,8.85,8.85,0,0,1,4.86-1.36A8,8,0,0,1,367,115.1Zm-5.65,6.17a6.57,6.57,0,0,0,0,7.87,4.95,4.95,0,0,0,7,0,6.29,6.29,0,0,0,0-7.81,5,5,0,0,0-7,0Z"/><path class="cls-8" d="M416.23,116.5a9.8,9.8,0,0,1,2.32,6.93v12.75h-6.69v-12a4.45,4.45,0,0,0-1.12-3.24,4.05,4.05,0,0,0-3.05-1.16,4.11,4.11,0,0,0-3.16,1.24,4.85,4.85,0,0,0-1.16,3.48v11.64h-6.73v-12a4.48,4.48,0,0,0-1.1-3.24,4,4,0,0,0-3-1.16,4.2,4.2,0,0,0-3.18,1.22,4.81,4.81,0,0,0-1.18,3.5v11.64h-6.72v-22h6.72V118a6.6,6.6,0,0,1,2.65-2.91A8.05,8.05,0,0,1,395,114a8.51,8.51,0,0,1,4.45,1.16,7.32,7.32,0,0,1,2.91,3.32,8.8,8.8,0,0,1,3.12-3.26,9,9,0,0,1,10.76,1.28Z"/></svg>